<svg width="800" height="600" xmlns="http://www.w3.org/2000/svg">
 <!-- Created with Method Draw - http://github.com/duopixel/Method-Draw/ -->
 <g>
  <title>background</title>
  <rect fill="#fff" id="canvas_background" height="602" width="802" y="-1" x="-1"/>
  <g display="none" overflow="visible" y="0" x="0" height="100%" width="100%" id="canvasGrid">
   <rect fill="url(#gridpattern)" stroke-width="0" y="0" x="0" height="100%" width="100%"/>
  </g>
 </g>
 <g>
  <title>Layer 1</title>
  <path stroke="#000" id="svg_1" d="m24.88,205.08766l45.45428,0l14.04572,-40.10654l14.04573,40.10654l45.45427,0l-36.77321,24.78692l14.04645,40.10654l-36.77323,-24.7876l-36.77322,24.7876l14.04645,-40.10654l-36.77323,-24.78692z" fill="#DDDDDD"/>
  <path stroke="#000" id="svg_2" d="m272.75,205.08767l45.45428,0l14.04572,-40.10654l14.04573,40.10654l45.45427,0l-36.77322,24.78692l14.04645,40.10654l-36.77323,-24.78759l-36.77322,24.78759l14.04645,-40.10654l-36.77323,-24.78692z" fill="#DDDDDD"/>
  <path stroke="#000" id="svg_3" d="m148.75,205.08766l45.45428,0l14.04572,-40.10654l14.04573,40.10654l45.45427,0l-36.77322,24.78692l14.04645,40.10654l-36.77323,-24.78759l-36.77322,24.78759l14.04645,-40.10654l-36.77323,-24.78692z" fill="#DDDDDD"/>
  <path stroke="#000" id="svg_4" d="m396.75,205.08767l45.45428,0l14.04572,-40.10654l14.04573,40.10654l45.45427,0l-36.77322,24.78692l14.04645,40.10654l-36.77323,-24.78759l-36.77322,24.78759l14.04645,-40.10654l-36.77323,-24.78692z" fill="#DDDDDD"/>
  <path stroke="#000" id="svg_5" d="m520.75,205.08767l45.45428,0l14.04572,-40.10654l14.04573,40.10654l45.45427,0l-36.77322,24.78692l14.04645,40.10654l-36.77323,-24.78759l-36.77322,24.78759l14.04645,-40.10654l-36.77323,-24.78692z" fill="#DDDDDD"/>
 </g>
</svg>